<svg xmlns="http://www.w3.org/2000/svg" xmlns:xlink="http://www.w3.org/1999/xlink" width="200" zoomAndPan="magnify" viewBox="0 0 150 37.5" height="50" preserveAspectRatio="xMidYMid meet" version="1.0"><defs><clipPath id="id1"><path d="M 45 9 L 45.695312 9 L 45.695312 28 L 45 28 Z M 45 9 " clip-rule="nonzero"/></clipPath></defs><path fill="#000000" d="M 123.355469 28.074219 L 128.941406 12.625 C 128.941406 12.625 124.734375 12.625 120.527344 13.476562 L 115.203125 28.136719 L 123.355469 28.136719 Z M 122.367188 8.414062 L 121.316406 11.375 C 125.523438 10.519531 129.730469 10.519531 129.730469 10.519531 L 130.78125 7.5625 C 130.78125 7.628906 126.574219 7.628906 122.367188 8.414062 Z M 122.367188 8.414062 " fill-opacity="1" fill-rule="evenodd"/><path fill="#000000" d="M 93.113281 24.457031 C 95.613281 24.917969 98.242188 25.179688 100.871094 25.179688 C 102.644531 25.179688 105.539062 24.984375 105.800781 22.746094 C 105.933594 21.894531 104.945312 21.234375 103.433594 20.445312 C 101.660156 19.460938 100.34375 19 98.832031 17.949219 C 97.320312 16.960938 96.664062 15.320312 97.1875 13.675781 C 98.703125 8.613281 106.128906 7.757812 110.535156 7.757812 C 113.558594 7.757812 116.515625 8.019531 119.34375 8.613281 L 118.292969 11.441406 C 115.664062 10.980469 106.0625 9.335938 105.605469 13.214844 C 105.472656 14.070312 106.394531 14.660156 107.90625 15.515625 C 109.679688 16.503906 111.0625 17.027344 112.574219 18.015625 C 114.085938 19 114.742188 20.644531 114.214844 22.289062 C 112.703125 27.347656 105.277344 28.203125 100.871094 28.203125 C 97.914062 28.203125 94.953125 27.941406 92.0625 27.347656 Z M 93.113281 24.457031 " fill-opacity="1" fill-rule="evenodd"/><path fill="#000000" d="M 80.949219 28.074219 L 85.617188 15.1875 C 87.460938 10.125 78.714844 12.164062 76.679688 17.816406 L 72.929688 28.074219 L 64.84375 28.074219 L 69.511719 15.1875 C 71.351562 10.125 62.609375 12.164062 60.570312 17.882812 L 56.824219 28.136719 L 48.738281 28.136719 L 56.167969 7.628906 C 58.730469 7.628906 60.109375 8.21875 61.292969 9.402344 C 61.6875 9.796875 62.015625 10.386719 62.148438 10.980469 C 63.660156 10.058594 64.976562 9.402344 65.894531 9.007812 C 67.605469 8.351562 69.644531 7.691406 72.207031 7.691406 C 74.769531 7.691406 76.152344 8.285156 77.335938 9.46875 C 77.796875 9.863281 78.058594 10.453125 78.191406 11.046875 C 79.703125 10.125 81.015625 9.46875 81.9375 9.074219 C 83.644531 8.414062 85.683594 7.757812 88.25 7.757812 C 90.8125 7.757812 92.191406 8.351562 93.375 9.535156 C 94.558594 10.652344 94.492188 12.753906 94.097656 13.9375 L 88.90625 28.269531 L 80.949219 28.269531 Z M 80.949219 28.074219 " fill-opacity="1" fill-rule="evenodd"/><g clip-path="url(#id1)"><path fill="#000000" d="M 73.640625 27.601562 L 77.683594 16.4375 C 79.28125 12.054688 71.707031 13.820312 69.941406 18.71875 L 66.695312 27.601562 L 59.6875 27.601562 L 63.730469 16.4375 C 65.328125 12.054688 57.753906 13.820312 55.988281 18.773438 L 52.738281 27.660156 L 45.734375 27.660156 L 52.171875 9.890625 C 54.390625 9.890625 55.585938 10.402344 56.613281 11.425781 C 56.953125 11.769531 57.238281 12.28125 57.351562 12.792969 C 58.664062 11.996094 59.800781 11.425781 60.601562 11.085938 C 62.082031 10.515625 63.847656 9.945312 66.066406 9.945312 C 68.289062 9.945312 69.484375 10.460938 70.507812 11.484375 C 70.90625 11.824219 71.136719 12.339844 71.25 12.851562 C 72.558594 12.054688 73.699219 11.484375 74.496094 11.144531 C 75.976562 10.574219 77.742188 10.003906 79.964844 10.003906 C 82.183594 10.003906 83.378906 10.515625 84.40625 11.542969 C 85.429688 12.507812 85.375 14.332031 85.03125 15.355469 L 80.53125 27.773438 L 73.640625 27.773438 Z M 73.640625 27.601562 " fill-opacity="1" fill-rule="evenodd"/></g><path fill="#c7c7c7" d="M 14.695312 7.78125 C 18.625 5.332031 23.410156 3.113281 27.964844 2.371094 L 28.195312 2.371094 C 32.75 3.113281 37.589844 5.332031 41.464844 7.78125 L 41.863281 8.011719 L 41.863281 8.464844 C 41.917969 14.390625 40.949219 20.710938 38.21875 26.007812 C 36.109375 30.164062 32.808594 33.753906 28.308594 35.347656 L 28.023438 35.460938 L 27.738281 35.347656 C 23.238281 33.808594 19.933594 30.164062 17.828125 26.007812 C 15.09375 20.710938 14.125 14.390625 14.183594 8.464844 L 14.183594 8.011719 Z M 14.695312 7.78125 " fill-opacity="1" fill-rule="evenodd"/><path fill="#ed1c24" d="M 15.152344 8.523438 C 19.253906 5.960938 23.921875 3.910156 28.136719 3.226562 C 32.292969 3.910156 37.019531 5.960938 41.121094 8.523438 C 41.179688 22.191406 35.882812 31.929688 28.136719 34.605469 C 20.335938 31.929688 15.09375 22.191406 15.152344 8.523438 Z M 15.152344 8.523438 " fill-opacity="1" fill-rule="evenodd"/><path fill="#000000" d="M 31.894531 13.820312 C 30.1875 15.8125 27.453125 16.097656 25.574219 16.15625 C 25.347656 16.15625 24.949219 16.210938 24.832031 16.382812 C 24.777344 16.496094 24.832031 16.609375 24.949219 16.667969 C 27.054688 18.148438 29.84375 17.066406 31.269531 16.324219 C 29.617188 17.804688 26.769531 18.089844 24.378906 17.238281 C 24.09375 17.121094 23.863281 17.121094 23.75 17.238281 C 23.695312 17.292969 23.636719 17.464844 23.75 17.636719 C 24.433594 18.886719 24.890625 19.855469 26.65625 20.425781 C 24.664062 20.3125 23.410156 18.433594 23.125 17.40625 C 23.125 19.117188 24.605469 20.253906 25.175781 20.9375 C 24.378906 20.996094 23.582031 21.050781 23.238281 21.621094 C 23.011719 22.019531 23.011719 22.535156 22.667969 23.046875 C 21.757812 21.335938 21.019531 18.886719 21.699219 16.78125 C 22.214844 15.1875 23.125 13.707031 25.347656 12.738281 C 24.777344 13.421875 24.320312 13.875 23.863281 14.617188 C 23.464844 15.300781 23.921875 15.585938 24.492188 14.671875 C 25.230469 16.382812 30.359375 15.355469 31.726562 13.707031 L 32.238281 13.476562 Z M 28.648438 28.855469 C 28.707031 28.796875 28.820312 28.742188 28.933594 28.742188 C 29.160156 28.796875 29.21875 29.082031 29.105469 29.195312 C 28.933594 29.425781 28.707031 29.59375 28.535156 29.765625 C 28.476562 29.878906 28.421875 29.992188 28.363281 30.050781 C 28.308594 29.652344 28.308594 29.195312 28.648438 28.855469 Z M 26.257812 28.058594 C 26.371094 27.945312 26.597656 27.945312 26.710938 28.058594 C 26.828125 28.171875 26.882812 28.398438 26.769531 28.511719 C 26.65625 28.683594 26.484375 28.742188 26.3125 28.855469 C 26.03125 29.027344 25.800781 29.195312 25.6875 29.480469 C 25.6875 29.140625 25.746094 28.855469 25.859375 28.570312 C 25.972656 28.398438 26.085938 28.226562 26.257812 28.058594 Z M 31.953125 27.773438 C 32.007812 27.714844 32.125 27.773438 32.179688 27.773438 C 32.292969 27.828125 32.292969 27.945312 32.351562 28 C 32.40625 28.226562 32.40625 28.398438 32.464844 28.628906 C 32.523438 28.683594 32.523438 28.796875 32.578125 28.855469 C 32.40625 28.796875 32.238281 28.683594 32.066406 28.511719 C 31.953125 28.34375 31.78125 28.226562 31.78125 28 C 31.78125 27.945312 31.839844 27.828125 31.953125 27.773438 Z M 24.492188 26.632812 C 24.605469 26.578125 24.777344 26.632812 24.890625 26.691406 C 25.003906 26.804688 24.949219 26.917969 24.949219 27.089844 C 24.949219 27.203125 24.832031 27.261719 24.777344 27.261719 C 24.546875 27.375 24.265625 27.488281 23.980469 27.601562 C 23.808594 27.660156 23.695312 27.773438 23.582031 27.945312 C 23.582031 27.714844 23.695312 27.488281 23.808594 27.316406 C 23.921875 27.089844 24.148438 26.804688 24.492188 26.632812 Z M 34.628906 24.925781 C 34.628906 24.8125 34.6875 24.753906 34.800781 24.699219 C 35.027344 24.699219 35.140625 24.8125 35.3125 24.867188 C 35.425781 24.925781 35.539062 24.925781 35.65625 24.925781 C 35.484375 25.039062 35.199219 25.152344 34.972656 25.152344 C 34.855469 25.152344 34.6875 25.097656 34.628906 24.925781 Z M 23.011719 24.015625 C 23.066406 23.957031 23.183594 24.015625 23.238281 24.015625 C 23.410156 24.070312 23.523438 24.242188 23.523438 24.355469 C 23.523438 24.527344 23.523438 24.699219 23.351562 24.8125 C 23.011719 24.980469 22.613281 25.097656 22.328125 25.324219 C 22.214844 25.382812 22.15625 25.496094 22.042969 25.609375 C 22.101562 25.210938 22.269531 24.753906 22.554688 24.414062 C 22.613281 24.242188 22.839844 24.128906 23.011719 24.015625 Z M 27.226562 22.363281 C 27.453125 22.25 27.738281 22.191406 27.964844 22.191406 C 27.738281 22.25 27.511719 22.363281 27.394531 22.535156 C 27.339844 22.589844 27.28125 22.703125 27.394531 22.761719 C 27.511719 22.816406 27.625 22.816406 27.738281 22.816406 C 27.851562 22.875 27.796875 22.988281 27.796875 23.101562 C 27.738281 23.386719 27.566406 23.617188 27.394531 23.898438 C 27.339844 23.957031 27.339844 24.015625 27.339844 24.070312 C 27.394531 24.070312 27.453125 24.015625 27.511719 24.015625 C 27.738281 23.84375 27.964844 23.730469 28.136719 23.5 C 28.195312 23.386719 28.308594 23.332031 28.363281 23.214844 C 28.363281 23.101562 28.195312 23.101562 28.195312 22.988281 C 28.25 22.875 28.421875 22.761719 28.59375 22.703125 C 28.933594 22.535156 29.503906 22.589844 29.730469 22.875 C 29.558594 22.816406 29.390625 22.761719 29.160156 22.703125 C 29.046875 22.703125 28.933594 22.761719 28.933594 22.816406 C 28.933594 22.933594 28.933594 23.046875 28.878906 23.160156 C 28.820312 23.558594 28.476562 23.898438 28.078125 24.070312 C 27.964844 24.128906 27.796875 24.183594 27.679688 24.296875 C 27.625 24.355469 27.566406 24.46875 27.566406 24.582031 C 27.679688 24.640625 27.738281 24.582031 27.851562 24.640625 C 28.078125 24.640625 28.308594 24.699219 28.476562 24.582031 C 28.648438 24.527344 28.761719 24.355469 28.933594 24.242188 C 29.445312 24.070312 30.074219 24.296875 30.300781 24.699219 C 30.128906 24.640625 30.015625 24.527344 29.84375 24.46875 C 29.675781 24.414062 29.445312 24.414062 29.332031 24.527344 C 29.160156 24.640625 29.105469 24.753906 28.992188 24.925781 C 28.933594 24.980469 28.933594 25.039062 28.820312 25.039062 C 28.707031 25.039062 28.59375 24.925781 28.421875 24.980469 C 28.25 25.039062 28.078125 25.097656 27.851562 25.152344 C 27.738281 25.210938 27.566406 25.152344 27.453125 25.152344 C 27.226562 25.097656 26.996094 25.039062 26.769531 25.039062 C 26.65625 25.039062 26.542969 25.039062 26.484375 25.152344 C 26.371094 25.265625 26.429688 25.382812 26.371094 25.496094 C 26.3125 25.210938 26.199219 24.867188 26.144531 24.582031 C 26.144531 24.183594 26.03125 23.785156 26.085938 23.445312 C 26.199219 23.617188 26.199219 23.785156 26.257812 23.957031 C 26.257812 24.015625 26.3125 24.128906 26.429688 24.183594 C 26.597656 24.183594 26.710938 24.070312 26.769531 23.957031 C 26.882812 23.785156 27.054688 23.558594 26.996094 23.332031 C 26.996094 23.214844 26.828125 23.214844 26.769531 23.160156 C 26.65625 23.046875 26.65625 22.875 26.710938 22.761719 C 26.882812 22.535156 27.054688 22.417969 27.226562 22.363281 Z M 35.996094 21.851562 C 35.996094 21.792969 36.109375 21.734375 36.222656 21.734375 C 36.394531 21.734375 36.566406 21.734375 36.679688 21.734375 C 36.566406 21.851562 36.394531 21.964844 36.222656 22.019531 C 36.109375 22.078125 35.996094 21.964844 35.996094 21.851562 Z M 36.109375 19.914062 C 36.222656 19.855469 36.335938 19.800781 36.453125 19.742188 C 36.394531 19.855469 36.335938 20.027344 36.167969 20.085938 C 36.054688 20.140625 35.996094 19.96875 36.109375 19.914062 Z M 30.472656 17.921875 C 30.640625 18.546875 30.871094 19.058594 31.554688 19.285156 C 32.238281 19.515625 33.148438 19.34375 33.890625 19.285156 C 34.457031 19.285156 35.027344 19.171875 35.484375 19.457031 C 35.710938 19.628906 35.824219 19.800781 35.882812 20.027344 C 35.996094 20.253906 36.109375 20.425781 36.167969 20.652344 C 36.222656 20.824219 36.167969 21.050781 36.109375 21.222656 C 35.9375 21.507812 35.824219 21.734375 35.824219 22.019531 C 35.769531 22.304688 35.710938 22.535156 35.710938 22.816406 C 35.65625 23.101562 35.597656 23.386719 35.484375 23.617188 C 35.371094 23.84375 35.140625 24.015625 34.972656 24.242188 C 34.6875 24.582031 34.574219 24.980469 34.457031 25.382812 C 34.34375 25.664062 34.289062 26.007812 34.230469 26.347656 C 34.171875 26.632812 34.003906 26.863281 33.71875 27.03125 C 33.261719 27.261719 32.75 27.316406 32.238281 27.488281 C 31.78125 27.660156 31.496094 27.945312 31.15625 28.171875 C 30.871094 28.398438 30.640625 28.628906 30.242188 28.683594 C 29.503906 28.796875 29.332031 28.226562 28.023438 28.683594 C 27.851562 28.742188 27.679688 28.742188 27.511719 28.683594 C 27.226562 28.511719 27.167969 28.113281 26.828125 27.945312 C 26.484375 27.773438 26.085938 27.773438 25.6875 27.714844 C 25.515625 27.714844 25.347656 27.601562 25.289062 27.429688 C 25.175781 27.203125 25.175781 26.976562 25.0625 26.746094 C 24.832031 26.234375 23.980469 26.0625 23.75 25.609375 C 23.523438 25.097656 23.808594 24.867188 23.863281 24.46875 C 23.863281 23.957031 23.464844 23.671875 22.78125 23.671875 C 23.183594 23.101562 23.296875 22.648438 23.464844 22.078125 C 23.582031 21.851562 23.582031 21.621094 23.808594 21.507812 C 23.980469 21.394531 24.320312 21.335938 24.546875 21.28125 C 24.832031 21.222656 25.175781 21.222656 25.460938 21.335938 C 26.144531 21.679688 25.972656 22.648438 25.628906 23.046875 C 25.175781 23.558594 23.980469 23.5 24.148438 22.648438 C 24.378906 22.875 24.605469 23.160156 24.949219 22.816406 C 24.949219 22.761719 25.003906 22.703125 25.003906 22.703125 C 24.949219 22.535156 24.832031 22.417969 24.664062 22.363281 C 24.546875 22.304688 24.433594 22.304688 24.378906 22.304688 C 24.035156 22.417969 23.808594 22.648438 23.695312 22.875 C 23.410156 23.386719 23.980469 23.84375 24.664062 23.730469 C 25.289062 23.617188 25.574219 23.332031 25.972656 23.046875 C 25.972656 23.730469 25.914062 24.183594 26.03125 24.925781 C 26.144531 25.4375 26.257812 25.949219 26.484375 26.40625 C 26.710938 26.804688 27.054688 27.144531 27.566406 27.375 C 28.078125 27.601562 28.648438 27.601562 29.21875 27.601562 C 30.1875 27.601562 31.609375 27.203125 32.40625 26.804688 C 33.660156 26.121094 33.832031 25.609375 34.457031 24.582031 C 34.742188 24.128906 34.972656 23.5 35.140625 22.988281 C 35.3125 22.476562 35.484375 21.90625 35.484375 21.394531 C 35.484375 20.9375 35.371094 20.652344 35.199219 20.425781 C 34.628906 19.742188 33.488281 20.027344 32.40625 19.96875 C 32.351562 20.140625 32.238281 20.3125 32.40625 20.484375 C 32.691406 20.769531 33.320312 20.710938 33.71875 20.769531 C 31.894531 21.507812 30.242188 20.710938 29.789062 19.230469 C 30.1875 19.6875 30.8125 20.710938 31.726562 20.425781 C 32.066406 20.3125 31.894531 20.085938 31.78125 19.914062 C 31.78125 19.855469 31.609375 19.855469 31.554688 19.800781 C 30.640625 19.34375 30.300781 18.605469 30.472656 17.921875 Z M 24.546875 17.578125 C 24.664062 17.691406 24.71875 17.804688 24.890625 17.921875 C 26.199219 18.886719 27.339844 18.886719 28.992188 18.945312 C 27.511719 19.285156 25.628906 19.058594 24.605469 18.089844 C 24.433594 17.976562 24.378906 17.804688 24.265625 17.691406 C 24.207031 17.464844 24.378906 17.464844 24.546875 17.578125 Z M 30.699219 17.292969 C 32.007812 17.238281 33.375 17.75 33.832031 19.003906 C 33.660156 18.832031 32.921875 18.660156 32.636719 18.71875 C 32.578125 18.71875 32.464844 18.773438 32.464844 18.832031 C 32.40625 18.945312 32.523438 19.058594 32.523438 19.117188 C 31.78125 19.171875 31.269531 18.945312 30.925781 18.488281 C 31.097656 18.546875 31.269531 18.660156 31.441406 18.71875 C 31.78125 18.773438 32.179688 18.660156 32.351562 18.433594 C 32.464844 18.320312 32.40625 18.089844 32.238281 17.976562 C 31.78125 17.578125 31.324219 17.578125 30.699219 17.292969 Z M 32.066406 14.902344 C 32.238281 14.789062 32.40625 14.617188 32.578125 14.503906 C 31.839844 15.640625 30.015625 16.554688 28.59375 16.78125 C 27.851562 16.953125 26.3125 17.121094 25.628906 16.722656 C 25.574219 16.667969 25.460938 16.609375 25.574219 16.554688 C 25.6875 16.496094 25.859375 16.496094 25.972656 16.496094 C 26.257812 16.496094 26.542969 16.496094 26.828125 16.496094 C 27.511719 16.496094 28.308594 16.382812 28.992188 16.269531 C 30.128906 16.039062 31.210938 15.585938 32.066406 14.902344 Z M 18.625 10.800781 C 18.851562 10.742188 19.082031 10.800781 19.253906 10.859375 C 19.480469 10.972656 19.59375 11.144531 19.707031 11.3125 C 19.765625 11.425781 19.820312 11.484375 19.765625 11.597656 C 19.707031 11.597656 19.652344 11.597656 19.59375 11.65625 C 19.535156 11.710938 19.535156 11.769531 19.535156 11.824219 C 19.59375 12.167969 19.707031 12.453125 19.878906 12.738281 C 19.878906 12.792969 19.933594 12.792969 19.992188 12.851562 C 20.050781 12.507812 19.933594 12.167969 20.105469 11.824219 C 20.105469 11.769531 20.164062 11.710938 20.21875 11.710938 C 20.335938 11.710938 20.449219 11.824219 20.5625 11.769531 C 20.675781 11.710938 20.675781 11.597656 20.617188 11.542969 C 20.5625 11.3125 20.390625 11.199219 20.21875 11.027344 C 20.503906 11.199219 20.789062 11.425781 20.960938 11.710938 C 21.019531 11.882812 21.019531 12.109375 20.847656 12.226562 C 20.789062 12.28125 20.675781 12.28125 20.5625 12.28125 C 20.335938 12.507812 20.390625 12.792969 20.449219 13.023438 C 20.449219 13.078125 20.503906 13.191406 20.617188 13.191406 C 20.847656 13.136719 21.019531 12.964844 21.1875 12.910156 C 20.734375 13.476562 20.390625 13.761719 20.050781 14.445312 C 20.050781 14.332031 20.105469 14.160156 20.050781 14.046875 C 20.050781 13.992188 19.933594 13.933594 19.878906 13.875 C 19.652344 13.761719 19.421875 13.707031 19.195312 13.589844 C 18.96875 13.476562 18.851562 13.25 18.683594 13.078125 C 18.570312 12.964844 18.398438 13.023438 18.285156 12.910156 C 18.226562 12.792969 18.285156 12.679688 18.226562 12.566406 C 18.171875 12.394531 18.171875 12.167969 18 12.054688 C 17.828125 11.941406 17.542969 11.941406 17.316406 11.941406 C 17.488281 11.882812 17.65625 11.824219 17.886719 11.824219 C 18.226562 11.882812 18.453125 12.054688 18.625 12.226562 C 18.738281 12.339844 18.738281 12.566406 18.851562 12.679688 C 18.910156 12.792969 19.082031 12.851562 19.195312 12.910156 C 19.308594 12.964844 19.480469 13.078125 19.59375 13.078125 C 19.652344 12.910156 19.59375 12.738281 19.480469 12.625 C 19.253906 12.394531 19.195312 12.109375 19.136719 11.824219 C 19.082031 11.65625 19.136719 11.425781 19.253906 11.257812 C 19.308594 11.144531 19.367188 11.085938 19.308594 10.972656 C 19.082031 10.859375 18.851562 10.859375 18.625 10.800781 Z M 26.882812 7.613281 C 27.453125 8.011719 28.25 8.464844 28.933594 8.808594 C 28.761719 8.921875 28.648438 9.09375 28.421875 9.09375 C 27.964844 8.921875 27.054688 8.011719 26.882812 7.613281 Z M 27.738281 6.300781 C 28.648438 7.382812 29.558594 8.238281 30.871094 8.863281 C 31.210938 9.035156 31.554688 9.148438 32.007812 9.207031 C 32.238281 9.207031 32.464844 9.09375 32.691406 9.09375 C 32.976562 9.09375 33.261719 9.207031 33.433594 9.320312 C 33.488281 9.378906 33.546875 9.433594 33.546875 9.492188 C 33.605469 9.777344 33.660156 10.0625 33.945312 10.230469 C 34.117188 10.34375 34.34375 10.34375 34.515625 10.289062 C 34.574219 10.460938 34.628906 10.574219 34.855469 10.628906 C 35.027344 10.6875 35.199219 10.460938 35.371094 10.515625 C 35.425781 10.628906 35.484375 10.742188 35.597656 10.800781 C 35.65625 10.859375 35.824219 10.914062 35.882812 10.972656 C 36.222656 11.144531 36.453125 11.484375 36.566406 11.769531 C 36.394531 11.542969 36.167969 11.3125 35.824219 11.199219 C 35.824219 11.65625 35.824219 12.28125 35.484375 12.507812 C 35.484375 12.226562 35.484375 11.941406 35.3125 11.65625 C 35.027344 11.824219 34.800781 12.109375 34.457031 12.167969 C 34.574219 11.996094 34.855469 11.824219 34.742188 11.597656 C 34.574219 11.484375 34.402344 11.484375 34.171875 11.542969 C 33.890625 11.597656 33.605469 11.769531 33.375 11.941406 C 33.320312 11.769531 33.261719 11.65625 33.207031 11.484375 C 33.035156 11.484375 32.464844 11.710938 32.636719 11.996094 C 32.863281 12.339844 33.320312 12.167969 33.546875 12.226562 C 33.71875 12.28125 33.832031 12.394531 33.890625 12.566406 C 33.890625 12.453125 33.890625 12.339844 33.945312 12.226562 C 34.230469 12.507812 34.457031 12.851562 34.628906 13.191406 C 34.914062 13.078125 34.972656 12.910156 35.027344 12.566406 C 35.140625 12.738281 35.140625 12.910156 35.140625 13.136719 C 35.199219 13.078125 35.253906 13.023438 35.3125 12.910156 C 35.425781 13.421875 35.3125 14.21875 34.574219 14.445312 C 34.6875 14.105469 34.742188 13.820312 34.289062 13.820312 C 33.945312 13.820312 33.488281 13.933594 33.148438 13.992188 C 33.261719 13.933594 33.890625 13.589844 33.773438 13.363281 C 33.71875 13.308594 33.660156 13.25 33.546875 13.25 C 33.320312 13.191406 33.089844 13.078125 32.863281 13.023438 C 32.75 13.023438 32.636719 13.078125 32.523438 13.136719 C 31.894531 12.851562 31.726562 13.191406 31.269531 13.25 C 30.871094 13.308594 30.414062 13.078125 30.1875 12.738281 C 29.730469 11.996094 30.414062 11.542969 31.042969 11.371094 C 30.242188 11.257812 29.902344 11.542969 29.730469 12.339844 C 29.332031 12.226562 29.160156 12.226562 28.707031 12.109375 C 26.03125 11.710938 23.921875 12.507812 22.726562 13.820312 C 21.53125 15.074219 20.789062 17.007812 20.847656 18.601562 C 20.789062 20.3125 21.359375 21.335938 22.214844 22.816406 C 20.902344 21.734375 20.335938 20.425781 19.992188 19.515625 C 19.820312 19.6875 19.878906 19.914062 19.820312 20.140625 C 19.082031 19.117188 20.105469 16.554688 20.617188 15.414062 C 20.21875 15.585938 19.992188 15.925781 19.707031 16.210938 C 19.652344 14.730469 20.960938 13.308594 22.269531 12.109375 C 21.871094 12.167969 21.585938 12.339844 21.1875 12.507812 C 22.441406 11.199219 24.777344 10.402344 26.828125 10.34375 C 26.3125 10.175781 25.746094 10.175781 25.230469 10.0625 C 26.828125 9.71875 27.964844 9.71875 29.046875 8.976562 C 29.558594 9.320312 30.128906 9.660156 30.472656 9.546875 C 29.675781 8.921875 28.023438 7.441406 27.738281 6.300781 Z M 32.523438 9.777344 C 32.636719 9.890625 32.75 10.003906 32.863281 10.175781 C 32.976562 10.289062 33.207031 10.402344 33.433594 10.34375 C 33.375 10.230469 33.375 10.117188 33.261719 10.003906 C 33.207031 9.945312 33.148438 9.945312 33.089844 9.945312 C 32.921875 9.890625 32.75 9.832031 32.523438 9.777344 Z M 32.523438 9.777344 " fill-opacity="1" fill-rule="evenodd"/><path fill="#ffffff" d="M 31.839844 13.589844 C 30.128906 15.585938 27.394531 15.871094 25.515625 15.925781 C 25.289062 15.925781 24.890625 15.984375 24.777344 16.15625 C 24.71875 16.269531 24.777344 16.382812 24.890625 16.4375 C 26.996094 17.921875 29.789062 16.839844 31.210938 16.097656 C 29.558594 17.578125 26.710938 17.863281 24.320312 17.007812 C 24.035156 16.894531 23.808594 16.894531 23.695312 17.007812 C 23.636719 17.066406 23.582031 17.238281 23.695312 17.40625 C 24.378906 18.660156 24.832031 19.628906 26.597656 20.199219 C 24.605469 20.085938 23.351562 18.203125 23.066406 17.179688 C 23.066406 18.886719 24.546875 20.027344 25.117188 20.710938 C 24.320312 20.769531 23.523438 20.824219 23.183594 21.394531 C 22.953125 21.792969 22.953125 22.304688 22.613281 22.816406 C 21.699219 21.109375 20.960938 18.660156 21.644531 16.554688 C 22.15625 14.957031 23.066406 13.476562 25.289062 12.507812 C 24.71875 13.191406 24.265625 13.648438 23.808594 14.390625 C 23.410156 15.074219 23.863281 15.355469 24.433594 14.445312 C 25.175781 16.15625 30.300781 15.128906 31.667969 13.476562 L 32.179688 13.25 Z M 28.59375 28.628906 C 28.648438 28.570312 28.761719 28.511719 28.878906 28.511719 C 29.105469 28.570312 29.160156 28.855469 29.046875 28.96875 C 28.878906 29.195312 28.648438 29.367188 28.476562 29.539062 C 28.421875 29.652344 28.363281 29.765625 28.308594 29.824219 C 28.25 29.425781 28.25 28.96875 28.59375 28.628906 Z M 26.144531 27.828125 C 26.257812 27.714844 26.484375 27.714844 26.597656 27.828125 C 26.710938 27.945312 26.769531 28.171875 26.65625 28.285156 C 26.542969 28.457031 26.371094 28.511719 26.199219 28.628906 C 25.914062 28.796875 25.6875 28.96875 25.574219 29.253906 C 25.574219 28.910156 25.628906 28.628906 25.746094 28.34375 C 25.859375 28.171875 25.972656 28 26.144531 27.828125 Z M 31.894531 27.546875 C 31.953125 27.488281 32.066406 27.546875 32.125 27.546875 C 32.238281 27.601562 32.238281 27.714844 32.292969 27.773438 C 32.351562 28 32.351562 28.171875 32.40625 28.398438 C 32.464844 28.457031 32.464844 28.570312 32.523438 28.628906 C 32.351562 28.570312 32.179688 28.457031 32.007812 28.285156 C 31.894531 28.113281 31.726562 28 31.726562 27.773438 C 31.726562 27.714844 31.78125 27.601562 31.894531 27.546875 Z M 24.378906 26.40625 C 24.492188 26.347656 24.664062 26.40625 24.777344 26.464844 C 24.890625 26.578125 24.832031 26.691406 24.832031 26.863281 C 24.832031 26.976562 24.71875 27.03125 24.664062 27.03125 C 24.433594 27.144531 24.148438 27.261719 23.863281 27.375 C 23.695312 27.429688 23.582031 27.546875 23.464844 27.714844 C 23.523438 27.488281 23.582031 27.261719 23.695312 27.089844 C 23.863281 26.863281 24.09375 26.578125 24.378906 26.40625 Z M 34.574219 24.699219 C 34.574219 24.582031 34.628906 24.527344 34.742188 24.46875 C 34.972656 24.46875 35.085938 24.582031 35.253906 24.640625 C 35.371094 24.699219 35.484375 24.699219 35.597656 24.699219 C 35.425781 24.8125 35.140625 24.925781 34.914062 24.925781 C 34.742188 24.925781 34.574219 24.867188 34.574219 24.699219 Z M 22.898438 23.785156 C 22.953125 23.730469 23.066406 23.785156 23.125 23.785156 C 23.296875 23.84375 23.410156 24.015625 23.410156 24.128906 C 23.410156 24.296875 23.410156 24.46875 23.238281 24.582031 C 22.898438 24.753906 22.5 24.867188 22.214844 25.097656 C 22.101562 25.152344 22.042969 25.265625 21.929688 25.382812 C 21.984375 24.980469 22.15625 24.527344 22.441406 24.183594 C 22.554688 24.015625 22.726562 23.898438 22.898438 23.785156 Z M 27.113281 22.132812 C 27.339844 22.019531 27.625 21.964844 27.851562 21.964844 C 27.625 22.019531 27.394531 22.132812 27.28125 22.304688 C 27.226562 22.363281 27.167969 22.476562 27.28125 22.535156 C 27.394531 22.589844 27.511719 22.589844 27.625 22.589844 C 27.738281 22.648438 27.679688 22.761719 27.679688 22.875 C 27.625 23.160156 27.453125 23.386719 27.28125 23.671875 C 27.226562 23.730469 27.226562 23.785156 27.226562 23.84375 C 27.28125 23.84375 27.339844 23.785156 27.394531 23.785156 C 27.625 23.617188 27.851562 23.5 28.023438 23.273438 C 28.078125 23.160156 28.195312 23.101562 28.25 22.988281 C 28.25 22.875 28.078125 22.875 28.078125 22.761719 C 28.136719 22.648438 28.308594 22.535156 28.476562 22.476562 C 28.820312 22.304688 29.390625 22.363281 29.617188 22.648438 C 29.445312 22.589844 29.277344 22.535156 29.046875 22.476562 C 28.933594 22.476562 28.820312 22.535156 28.820312 22.589844 C 28.820312 22.703125 28.820312 22.816406 28.761719 22.933594 C 28.707031 23.332031 28.363281 23.671875 27.964844 23.84375 C 27.851562 23.898438 27.679688 23.957031 27.566406 24.070312 C 27.511719 24.128906 27.453125 24.242188 27.453125 24.355469 C 27.566406 24.414062 27.625 24.355469 27.738281 24.414062 C 27.964844 24.414062 28.195312 24.46875 28.363281 24.355469 C 28.535156 24.296875 28.648438 24.128906 28.820312 24.015625 C 29.332031 23.84375 29.960938 24.070312 30.1875 24.46875 C 30.015625 24.414062 29.902344 24.296875 29.730469 24.242188 C 29.558594 24.183594 29.332031 24.183594 29.21875 24.296875 C 29.046875 24.414062 28.992188 24.527344 28.878906 24.699219 C 28.820312 24.753906 28.820312 24.8125 28.707031 24.8125 C 28.59375 24.8125 28.476562 24.699219 28.308594 24.753906 C 28.136719 24.8125 27.964844 24.867188 27.738281 24.925781 C 27.625 24.980469 27.453125 24.925781 27.339844 24.925781 C 27.113281 24.867188 26.882812 24.8125 26.65625 24.8125 C 26.542969 24.8125 26.429688 24.8125 26.371094 24.925781 C 26.257812 25.039062 26.3125 25.152344 26.257812 25.265625 C 26.199219 24.980469 26.085938 24.640625 26.03125 24.355469 C 26.03125 23.957031 25.914062 23.558594 25.972656 23.214844 C 26.085938 23.386719 26.085938 23.558594 26.144531 23.730469 C 26.144531 23.785156 26.199219 23.898438 26.3125 23.957031 C 26.484375 23.957031 26.597656 23.84375 26.65625 23.730469 C 26.769531 23.558594 26.941406 23.332031 26.882812 23.101562 C 26.882812 22.988281 26.710938 22.988281 26.65625 22.933594 C 26.542969 22.816406 26.542969 22.648438 26.597656 22.535156 C 26.828125 22.304688 26.941406 22.191406 27.113281 22.132812 Z M 35.9375 21.621094 C 35.9375 21.566406 36.054688 21.507812 36.167969 21.507812 C 36.335938 21.507812 36.507812 21.507812 36.621094 21.507812 C 36.507812 21.621094 36.335938 21.734375 36.167969 21.792969 C 35.996094 21.851562 35.882812 21.734375 35.9375 21.621094 Z M 36.054688 19.6875 C 36.167969 19.628906 36.28125 19.570312 36.394531 19.515625 C 36.335938 19.628906 36.28125 19.800781 36.109375 19.855469 C 35.9375 19.914062 35.9375 19.742188 36.054688 19.6875 Z M 30.359375 17.691406 C 30.527344 18.320312 30.757812 18.832031 31.441406 19.058594 C 32.125 19.285156 33.035156 19.117188 33.773438 19.058594 C 34.34375 19.058594 34.914062 18.945312 35.371094 19.230469 C 35.597656 19.402344 35.710938 19.570312 35.769531 19.800781 C 35.882812 20.027344 35.996094 20.199219 36.054688 20.425781 C 36.109375 20.597656 36.054688 20.824219 35.996094 20.996094 C 35.824219 21.28125 35.710938 21.507812 35.710938 21.792969 C 35.65625 22.078125 35.597656 22.304688 35.597656 22.589844 C 35.539062 22.875 35.484375 23.160156 35.371094 23.386719 C 35.253906 23.617188 35.027344 23.785156 34.855469 24.015625 C 34.574219 24.355469 34.457031 24.753906 34.34375 25.152344 C 34.230469 25.4375 34.171875 25.78125 34.117188 26.121094 C 34.058594 26.40625 33.890625 26.632812 33.605469 26.804688 C 33.148438 27.03125 32.636719 27.089844 32.125 27.261719 C 31.667969 27.429688 31.382812 27.714844 31.042969 27.945312 C 30.757812 28.171875 30.527344 28.398438 30.128906 28.457031 C 29.390625 28.570312 29.21875 28 27.910156 28.457031 C 27.738281 28.511719 27.566406 28.511719 27.394531 28.457031 C 27.113281 28.285156 27.054688 27.886719 26.710938 27.714844 C 26.371094 27.546875 25.972656 27.546875 25.574219 27.488281 C 25.402344 27.488281 25.230469 27.375 25.175781 27.203125 C 25.0625 26.976562 25.0625 26.746094 24.949219 26.519531 C 24.71875 26.007812 23.863281 25.835938 23.636719 25.382812 C 23.410156 24.867188 23.695312 24.640625 23.75 24.242188 C 23.75 23.730469 23.351562 23.445312 22.667969 23.445312 C 23.066406 22.875 23.183594 22.417969 23.351562 21.851562 C 23.464844 21.621094 23.464844 21.394531 23.695312 21.28125 C 23.863281 21.167969 24.207031 21.109375 24.433594 21.050781 C 24.71875 20.996094 25.0625 20.996094 25.347656 21.109375 C 26.03125 21.449219 25.859375 22.417969 25.515625 22.816406 C 25.0625 23.332031 23.863281 23.273438 24.035156 22.417969 C 24.265625 22.648438 24.492188 22.933594 24.832031 22.589844 C 24.832031 22.535156 24.890625 22.476562 24.890625 22.476562 C 24.832031 22.304688 24.71875 22.191406 24.546875 22.132812 C 24.433594 22.078125 24.320312 22.078125 24.265625 22.078125 C 23.921875 22.191406 23.695312 22.363281 23.582031 22.648438 C 23.296875 23.160156 23.863281 23.617188 24.546875 23.5 C 25.175781 23.386719 25.460938 23.101562 25.859375 22.816406 C 25.859375 23.5 25.800781 23.957031 25.914062 24.699219 C 26.03125 25.210938 26.144531 25.722656 26.371094 26.179688 C 26.597656 26.578125 26.941406 26.917969 27.453125 27.144531 C 27.964844 27.375 28.535156 27.375 29.105469 27.375 C 30.074219 27.375 31.496094 26.976562 32.292969 26.578125 C 33.546875 25.894531 33.71875 25.382812 34.34375 24.355469 C 34.628906 23.898438 34.855469 23.273438 35.027344 22.761719 C 35.199219 22.25 35.371094 21.679688 35.371094 21.167969 C 35.371094 20.710938 35.253906 20.425781 35.085938 20.199219 C 34.515625 19.515625 33.375 19.800781 32.292969 19.742188 C 32.238281 19.914062 32.125 20.085938 32.292969 20.253906 C 32.578125 20.539062 33.207031 20.484375 33.605469 20.539062 C 31.78125 21.28125 30.128906 20.484375 29.675781 19.003906 C 30.074219 19.457031 30.699219 20.484375 31.609375 20.199219 C 31.953125 20.085938 31.78125 19.855469 31.667969 19.6875 C 31.667969 19.628906 31.496094 19.628906 31.441406 19.570312 C 30.527344 19.117188 30.242188 18.375 30.359375 17.691406 Z M 24.492188 17.351562 C 24.605469 17.464844 24.664062 17.578125 24.832031 17.691406 C 26.144531 18.660156 27.28125 18.660156 28.933594 18.71875 C 27.453125 19.058594 25.574219 18.832031 24.546875 17.863281 C 24.378906 17.75 24.320312 17.578125 24.207031 17.464844 C 24.09375 17.238281 24.320312 17.238281 24.492188 17.351562 Z M 30.640625 17.066406 C 31.953125 17.007812 33.320312 17.519531 33.773438 18.773438 C 33.605469 18.601562 32.863281 18.433594 32.578125 18.488281 C 32.523438 18.488281 32.40625 18.546875 32.40625 18.601562 C 32.351562 18.71875 32.464844 18.832031 32.464844 18.886719 C 31.726562 18.945312 31.210938 18.71875 30.871094 18.261719 C 31.042969 18.320312 31.210938 18.433594 31.382812 18.488281 C 31.726562 18.546875 32.125 18.433594 32.292969 18.203125 C 32.40625 18.089844 32.351562 17.863281 32.179688 17.75 C 31.726562 17.351562 31.210938 17.351562 30.640625 17.066406 Z M 32.007812 14.671875 C 32.179688 14.558594 32.351562 14.390625 32.523438 14.273438 C 31.78125 15.414062 29.960938 16.324219 28.535156 16.554688 C 27.796875 16.722656 26.257812 16.894531 25.574219 16.496094 C 25.515625 16.4375 25.402344 16.382812 25.515625 16.324219 C 25.628906 16.269531 25.800781 16.269531 25.914062 16.269531 C 26.199219 16.269531 26.484375 16.269531 26.769531 16.269531 C 27.453125 16.269531 28.25 16.15625 28.933594 16.039062 C 30.074219 15.8125 31.15625 15.355469 32.007812 14.671875 Z M 18.511719 10.574219 C 18.738281 10.515625 18.96875 10.574219 19.136719 10.628906 C 19.367188 10.742188 19.480469 10.914062 19.59375 11.085938 C 19.652344 11.199219 19.707031 11.257812 19.652344 11.371094 C 19.59375 11.371094 19.535156 11.371094 19.480469 11.425781 C 19.421875 11.484375 19.421875 11.542969 19.421875 11.597656 C 19.480469 11.941406 19.59375 12.226562 19.765625 12.507812 C 19.765625 12.566406 19.820312 12.566406 19.878906 12.625 C 19.933594 12.28125 19.820312 11.941406 19.992188 11.597656 C 19.992188 11.542969 20.050781 11.484375 20.105469 11.484375 C 20.21875 11.484375 20.335938 11.597656 20.449219 11.542969 C 20.5625 11.484375 20.5625 11.371094 20.503906 11.3125 C 20.449219 11.085938 20.277344 10.972656 20.105469 10.800781 C 20.390625 10.972656 20.675781 11.199219 20.847656 11.484375 C 20.902344 11.65625 20.902344 11.882812 20.734375 11.996094 C 20.675781 12.054688 20.5625 12.054688 20.449219 12.054688 C 20.21875 12.28125 20.277344 12.566406 20.335938 12.792969 C 20.335938 12.851562 20.390625 12.964844 20.503906 12.964844 C 20.734375 12.910156 20.902344 12.738281 21.074219 12.679688 C 20.617188 13.25 20.277344 13.535156 19.933594 14.21875 C 19.933594 14.105469 19.992188 13.933594 19.933594 13.820312 C 19.933594 13.761719 19.820312 13.707031 19.765625 13.648438 C 19.535156 13.535156 19.308594 13.476562 19.082031 13.363281 C 18.851562 13.25 18.738281 13.023438 18.570312 12.851562 C 18.453125 12.738281 18.285156 12.792969 18.171875 12.679688 C 18.113281 12.566406 18.171875 12.453125 18.113281 12.339844 C 18.054688 12.167969 18.054688 11.941406 17.886719 11.824219 C 17.714844 11.710938 17.429688 11.710938 17.203125 11.710938 C 17.371094 11.65625 17.542969 11.597656 17.769531 11.597656 C 18.113281 11.65625 18.339844 11.824219 18.511719 11.996094 C 18.625 12.109375 18.625 12.339844 18.738281 12.453125 C 18.796875 12.566406 18.96875 12.625 19.082031 12.679688 C 19.195312 12.738281 19.367188 12.851562 19.480469 12.851562 C 19.535156 12.679688 19.480469 12.507812 19.367188 12.394531 C 19.136719 12.167969 19.082031 11.882812 19.023438 11.597656 C 18.96875 11.425781 19.023438 11.199219 19.136719 11.027344 C 19.195312 10.914062 19.253906 10.859375 19.195312 10.742188 C 19.023438 10.628906 18.738281 10.628906 18.511719 10.574219 Z M 26.769531 7.382812 C 27.339844 7.78125 28.136719 8.238281 28.820312 8.578125 C 28.648438 8.695312 28.535156 8.863281 28.308594 8.863281 C 27.851562 8.75 26.941406 7.78125 26.769531 7.382812 Z M 27.625 6.074219 C 28.535156 7.15625 29.445312 8.011719 30.757812 8.636719 C 31.097656 8.808594 31.441406 8.921875 31.894531 8.976562 C 32.125 8.976562 32.351562 8.863281 32.578125 8.863281 C 32.863281 8.863281 33.148438 8.976562 33.320312 9.09375 C 33.375 9.148438 33.433594 9.207031 33.433594 9.261719 C 33.488281 9.546875 33.546875 9.832031 33.832031 10.003906 C 34.003906 10.117188 34.230469 10.117188 34.402344 10.0625 C 34.457031 10.230469 34.515625 10.34375 34.742188 10.402344 C 34.914062 10.460938 35.085938 10.230469 35.253906 10.289062 C 35.3125 10.402344 35.371094 10.515625 35.484375 10.574219 C 35.539062 10.628906 35.710938 10.6875 35.769531 10.742188 C 36.109375 10.914062 36.335938 11.257812 36.453125 11.542969 C 36.28125 11.3125 36.054688 11.085938 35.710938 10.972656 C 35.710938 11.425781 35.710938 12.054688 35.371094 12.28125 C 35.371094 11.996094 35.371094 11.710938 35.199219 11.425781 C 34.914062 11.597656 34.6875 11.882812 34.34375 11.941406 C 34.457031 11.769531 34.742188 11.597656 34.628906 11.371094 C 34.457031 11.257812 34.289062 11.257812 34.058594 11.3125 C 33.773438 11.371094 33.488281 11.542969 33.261719 11.710938 C 33.207031 11.542969 33.148438 11.425781 33.089844 11.257812 C 32.921875 11.257812 32.351562 11.484375 32.523438 11.769531 C 32.75 12.109375 33.207031 11.941406 33.433594 11.996094 C 33.605469 12.054688 33.71875 12.167969 33.773438 12.339844 C 33.773438 12.226562 33.773438 12.109375 33.832031 11.996094 C 34.117188 12.28125 34.34375 12.625 34.515625 12.964844 C 34.800781 12.851562 34.855469 12.679688 34.914062 12.339844 C 35.027344 12.507812 35.027344 12.679688 35.027344 12.910156 C 35.140625 12.851562 35.140625 12.792969 35.199219 12.679688 C 35.3125 13.191406 35.199219 13.992188 34.457031 14.21875 C 34.574219 13.875 34.628906 13.589844 34.171875 13.589844 C 33.832031 13.589844 33.375 13.707031 33.035156 13.761719 C 33.148438 13.707031 33.773438 13.363281 33.660156 13.136719 C 33.605469 13.078125 33.546875 13.023438 33.433594 13.023438 C 33.207031 12.964844 32.976562 12.851562 32.75 12.792969 C 32.636719 12.792969 32.523438 12.851562 32.40625 12.910156 C 31.78125 12.625 31.609375 12.964844 31.15625 13.023438 C 30.757812 13.078125 30.300781 12.851562 30.074219 12.507812 C 29.617188 11.769531 30.300781 11.3125 30.925781 11.144531 C 30.128906 11.027344 29.789062 11.3125 29.617188 12.109375 C 29.21875 11.996094 29.046875 11.996094 28.59375 11.882812 C 25.914062 11.484375 23.808594 12.28125 22.613281 13.589844 C 21.417969 14.84375 20.675781 16.78125 20.734375 18.375 C 20.675781 20.085938 21.246094 21.109375 22.101562 22.589844 C 20.789062 21.507812 20.21875 20.199219 19.878906 19.285156 C 19.707031 19.457031 19.765625 19.6875 19.707031 19.914062 C 18.96875 18.886719 19.992188 16.324219 20.503906 15.1875 C 20.105469 15.355469 19.878906 15.699219 19.59375 15.984375 C 19.535156 14.503906 20.847656 13.078125 22.15625 11.882812 C 21.757812 11.941406 21.472656 12.109375 21.074219 12.28125 C 22.328125 10.972656 24.664062 10.175781 26.710938 10.117188 C 26.199219 9.945312 25.628906 9.945312 25.117188 9.832031 C 26.710938 9.492188 27.851562 9.492188 28.933594 8.75 C 29.445312 9.09375 30.015625 9.433594 30.359375 9.320312 C 29.558594 8.695312 27.964844 7.214844 27.625 6.074219 Z M 32.464844 9.546875 C 32.578125 9.660156 32.691406 9.777344 32.808594 9.945312 C 32.921875 10.0625 33.148438 10.175781 33.375 10.117188 C 33.320312 10.003906 33.320312 9.890625 33.207031 9.777344 C 33.148438 9.71875 33.089844 9.71875 33.035156 9.71875 C 32.808594 9.660156 32.636719 9.605469 32.464844 9.546875 Z M 32.464844 9.546875 " fill-opacity="1" fill-rule="evenodd"/></svg>